<?xml version="1.0" encoding="UTF-8" standalone="no"?>
<!-- Created with Inkscape (http://www.inkscape.org/) -->

<svg
   xmlns:dc="http://purl.org/dc/elements/1.1/"
   xmlns:cc="http://creativecommons.org/ns#"
   xmlns:rdf="http://www.w3.org/1999/02/22-rdf-syntax-ns#"
   xmlns:svg="http://www.w3.org/2000/svg"
   xmlns="http://www.w3.org/2000/svg"
   xmlns:sodipodi="http://sodipodi.sourceforge.net/DTD/sodipodi-0.dtd"
   xmlns:inkscape="http://www.inkscape.org/namespaces/inkscape"
   id="svg2"
   version="1.1"
   inkscape:version="0.91 r"
   xml:space="preserve"
   width="387.59"
   height="185.45953"
   viewBox="0 0 387.58999 185.45954"
   sodipodi:docname="paparazzifeelgood.svg"><metadata
     id="metadata8"><rdf:RDF><cc:Work
         rdf:about=""><dc:format>image/svg+xml</dc:format><dc:type
           rdf:resource="http://purl.org/dc/dcmitype/StillImage" /><dc:title></dc:title></cc:Work></rdf:RDF></metadata><defs
     id="defs6" /><sodipodi:namedview
     pagecolor="#ffffff"
     bordercolor="#666666"
     borderopacity="1"
     objecttolerance="10"
     gridtolerance="10"
     guidetolerance="10"
     inkscape:pageopacity="0"
     inkscape:pageshadow="2"
     inkscape:window-width="1317"
     inkscape:window-height="744"
     id="namedview4"
     showgrid="false"
     inkscape:zoom="1.5755673"
     inkscape:cx="134.02902"
     inkscape:cy="28.786239"
     inkscape:window-x="49"
     inkscape:window-y="24"
     inkscape:window-maximized="1"
     inkscape:current-layer="g10"
     fit-margin-top="0"
     fit-margin-left="0"
     fit-margin-right="0"
     fit-margin-bottom="0" /><g
     id="g10"
     inkscape:groupmode="layer"
     inkscape:label="ink_ext_XXXXXX"
     transform="matrix(1.25,0,0,-1.25,0,422.35165)"><g
       id="g3481"
       transform="translate(0,189.51332)"><path
         d="m 0.125,36.0184 0.607422,0 c 1.507028,0 2.619138,-0.1961 3.337888,-0.5918 0.71875,-0.3973 1.07735,-1.0098 1.07735,-1.8399 l 0,-7.7828 c 0,-0.8215 -0.36172,-1.4348 -1.08516,-1.8324 C 3.33672,23.5711 2.22734,23.3719 0.732422,23.3719 l -0.607422,0 0,-0.3731 16.0957,0 0,0.3731 -1.5469,0 c -1.4843,0 -2.5871,0.1992 -3.3117,0.5996 -0.7234,0.3976 -1.0867,1.0109 -1.0867,1.8324 l 0,4.0602 1.2004,0 c 1.8418,0 3.2547,-0.3348 4.2398,-1.0055 0.4641,-0.3059 0.8293,-0.6543 1.0957,-1.0441 0.2668,-0.3887 0.4922,-0.9172 0.6782,-1.5793 l 0.6433,0 0,7.6679 -0.6086,0 c -0.3941,-1.2945 -1.0426,-2.2332 -1.9461,-2.8144 -0.9043,-0.5801 -2.1609,-0.8711 -3.7722,-0.8711 l -1.5305,0 0,5.8008 5.7551,0 c 1.4351,0 2.7195,-0.1102 3.8484,-0.334 1.1301,-0.2235 2.1106,-0.5633 2.9387,-1.0203 0.8277,-0.4559 1.532,-1.0383 2.1109,-1.7461 0.1977,-0.2239 0.4004,-0.543 0.6086,-0.9582 0.209,-0.4137 0.4004,-0.8711 0.5742,-1.368 l 0.5735,0 0,5.782 -26.5598,0 0,-0.3554"
         style="fill:#f5f5f5;fill-opacity:1;fill-rule:nonzero;stroke:none"
         id="path52"
         inkscape:connector-curvature="0" /><path
         d="m 0.125,36.0184 0.607422,0 c 1.507028,0 2.619138,-0.1961 3.337888,-0.5918 0.71875,-0.3973 1.07735,-1.0098 1.07735,-1.8399 l 0,-7.7828 c 0,-0.8215 -0.36172,-1.4348 -1.08516,-1.8324 C 3.33672,23.5711 2.22734,23.3719 0.732422,23.3719 l -0.607422,0 0,-0.3731 16.0957,0 0,0.3731 -1.5469,0 c -1.4843,0 -2.5871,0.1992 -3.3117,0.5996 -0.7234,0.3976 -1.0867,1.0109 -1.0867,1.8324 l 0,4.0602 1.2004,0 c 1.8418,0 3.2547,-0.3348 4.2398,-1.0055 0.4641,-0.3059 0.8293,-0.6543 1.0957,-1.0441 0.2668,-0.3887 0.4922,-0.9172 0.6782,-1.5793 l 0.6433,0 0,7.6679 -0.6086,0 c -0.3941,-1.2945 -1.0426,-2.2332 -1.9461,-2.8144 -0.9043,-0.5801 -2.1609,-0.8711 -3.7722,-0.8711 l -1.5305,0 0,5.8008 5.7551,0 c 1.4351,0 2.7195,-0.1102 3.8484,-0.334 1.1301,-0.2235 2.1106,-0.5633 2.9387,-1.0203 0.8277,-0.4559 1.532,-1.0383 2.1109,-1.7461 0.1977,-0.2239 0.4004,-0.543 0.6086,-0.9582 0.209,-0.4137 0.4004,-0.8711 0.5742,-1.368 l 0.5735,0 0,5.782 -26.5598,0 0,-0.3554 z"
         style="fill:none;stroke:#d04a43;stroke-width:0.25;stroke-linecap:butt;stroke-linejoin:miter;stroke-miterlimit:10;stroke-dasharray:none;stroke-opacity:1"
         id="path54"
         inkscape:connector-curvature="0" /><path
         d="m 56.5215,26.6648 c -0.6262,-0.7898 -1.5067,-1.45 -2.6426,-1.9804 -0.6609,-0.3125 -1.3684,-0.5664 -2.1199,-0.7606 -0.7531,-0.1945 -1.6027,-0.339 -2.5481,-0.4316 -0.9445,-0.093 -2.007,-0.1387 -3.1894,-0.1387 l -3.9981,0 0,5.9824 1.0086,0 c 1.9243,0 3.4075,-0.3523 4.4504,-1.0625 0.3711,-0.2597 0.6746,-0.5226 0.9121,-0.7832 0.2371,-0.2629 0.4512,-0.6023 0.6426,-1.0214 0.1926,-0.418 0.3567,-0.8625 0.4961,-1.3352 l 0.6094,0 0,8.7695 -0.6094,0 c -0.116,-0.5359 -0.2441,-0.9414 -0.3816,-1.2156 -0.2786,-0.6457 -0.7075,-1.2 -1.2871,-1.666 -1.1243,-0.9063 -2.6418,-1.3586 -4.554,-1.3586 l -1.2871,0 0,6.3555 4.7801,0 c 2.0403,0 3.7727,-0.1621 5.1985,-0.4871 0.8566,-0.2043 1.6503,-0.5469 2.3808,-1.0247 0.6027,-0.4023 1.093,-0.8277 1.4688,-1.2781 0.3769,-0.4492 0.8027,-1.1281 1.2773,-2.0332 l 0.5215,0 0,5.1785 -25.8301,0 0,-0.3554 0.6613,0 c 1.5055,0 2.6192,-0.1961 3.3368,-0.5918 0.7175,-0.3973 1.0781,-1.0098 1.0781,-1.8399 l 0,-7.7828 c 0,-1.634 -1.4719,-2.4504 -4.4149,-2.4504 l -0.6613,0 0.0352,-0.3547 26.4386,0 0,5.5051 -0.6437,0 c -0.3938,-0.7726 -0.7703,-1.3848 -1.1289,-1.8391"
         style="fill:#f5f5f5;fill-opacity:1;fill-rule:nonzero;stroke:none"
         id="path56"
         inkscape:connector-curvature="0" /><path
         d="m 56.5215,26.6648 c -0.6262,-0.7898 -1.5067,-1.45 -2.6426,-1.9804 -0.6609,-0.3125 -1.3684,-0.5664 -2.1199,-0.7606 -0.7531,-0.1945 -1.6027,-0.339 -2.5481,-0.4316 -0.9445,-0.093 -2.007,-0.1387 -3.1894,-0.1387 l -3.9981,0 0,5.9824 1.0086,0 c 1.9243,0 3.4075,-0.3523 4.4504,-1.0625 0.3711,-0.2597 0.6746,-0.5226 0.9121,-0.7832 0.2371,-0.2629 0.4512,-0.6023 0.6426,-1.0214 0.1926,-0.418 0.3567,-0.8625 0.4961,-1.3352 l 0.6094,0 0,8.7695 -0.6094,0 c -0.116,-0.5359 -0.2441,-0.9414 -0.3816,-1.2156 -0.2786,-0.6457 -0.7075,-1.2 -1.2871,-1.666 -1.1243,-0.9063 -2.6418,-1.3586 -4.554,-1.3586 l -1.2871,0 0,6.3555 4.7801,0 c 2.0403,0 3.7727,-0.1621 5.1985,-0.4871 0.8566,-0.2043 1.6503,-0.5469 2.3808,-1.0247 0.6027,-0.4023 1.093,-0.8277 1.4688,-1.2781 0.3769,-0.4492 0.8027,-1.1281 1.2773,-2.0332 l 0.5215,0 0,5.1785 -25.8301,0 0,-0.3554 0.6613,0 c 1.5055,0 2.6192,-0.1961 3.3368,-0.5918 0.7175,-0.3973 1.0781,-1.0098 1.0781,-1.8399 l 0,-7.7828 c 0,-1.634 -1.4719,-2.4504 -4.4149,-2.4504 l -0.6613,0 0.0352,-0.3547 26.4386,0 0,5.5051 -0.6437,0 c -0.3938,-0.7726 -0.7703,-1.3848 -1.1289,-1.8391 z"
         style="fill:none;stroke:#d04a43;stroke-width:0.25;stroke-linecap:butt;stroke-linejoin:miter;stroke-miterlimit:10;stroke-dasharray:none;stroke-opacity:1"
         id="path58"
         inkscape:connector-curvature="0" /><path
         d="m 89.2051,26.6648 c -0.6262,-0.7898 -1.5059,-1.45 -2.6414,-1.9804 -0.6606,-0.3125 -1.3672,-0.5664 -2.1203,-0.7606 -0.7539,-0.1945 -1.6028,-0.339 -2.5469,-0.4316 -0.9442,-0.093 -2.0078,-0.1387 -3.1895,-0.1387 l -3.998,0 0,5.9824 1.0078,0 c 1.9238,0 3.407,-0.3523 4.4504,-1.0625 0.3699,-0.2597 0.6746,-0.5226 0.9129,-0.7832 0.2375,-0.2629 0.4512,-0.6023 0.6433,-1.0214 0.1914,-0.418 0.3555,-0.8625 0.4946,-1.3352 l 0.6082,0 0,8.7695 -0.6082,0 c -0.1157,-0.5359 -0.2434,-0.9414 -0.3828,-1.2156 -0.2778,-0.6457 -0.7063,-1.2 -1.2856,-1.666 -1.125,-0.9063 -2.6426,-1.3586 -4.5547,-1.3586 l -1.2859,0 0,6.3555 4.7805,0 c 2.0386,0 3.771,-0.1621 5.1968,-0.4871 0.8578,-0.2043 1.6516,-0.5469 2.3813,-1.0247 0.6023,-0.4023 1.0918,-0.8277 1.4683,-1.2781 0.3774,-0.4492 0.8032,-1.1281 1.2786,-2.0332 l 0.5214,0 0,5.1785 -25.83,0 0,-0.3554 0.6601,0 c 1.507,0 2.6184,-0.1961 3.3379,-0.5918 0.7188,-0.3973 1.0781,-1.0098 1.0781,-1.8399 l 0,-7.7828 c 0,-1.634 -1.4715,-2.4504 -4.416,-2.4504 l -0.6601,0 0.0351,-0.3547 26.4375,0 0,5.5051 -0.6426,0 c -0.3945,-0.7726 -0.7707,-1.3848 -1.1308,-1.8391"
         style="fill:#f5f5f5;fill-opacity:1;fill-rule:nonzero;stroke:none"
         id="path60"
         inkscape:connector-curvature="0" /><path
         d="m 89.2051,26.6648 c -0.6262,-0.7898 -1.5059,-1.45 -2.6414,-1.9804 -0.6606,-0.3125 -1.3672,-0.5664 -2.1203,-0.7606 -0.7539,-0.1945 -1.6028,-0.339 -2.5469,-0.4316 -0.9442,-0.093 -2.0078,-0.1387 -3.1895,-0.1387 l -3.998,0 0,5.9824 1.0078,0 c 1.9238,0 3.407,-0.3523 4.4504,-1.0625 0.3699,-0.2597 0.6746,-0.5226 0.9129,-0.7832 0.2375,-0.2629 0.4512,-0.6023 0.6433,-1.0214 0.1914,-0.418 0.3555,-0.8625 0.4946,-1.3352 l 0.6082,0 0,8.7695 -0.6082,0 c -0.1157,-0.5359 -0.2434,-0.9414 -0.3828,-1.2156 -0.2778,-0.6457 -0.7063,-1.2 -1.2856,-1.666 -1.125,-0.9063 -2.6426,-1.3586 -4.5547,-1.3586 l -1.2859,0 0,6.3555 4.7805,0 c 2.0386,0 3.771,-0.1621 5.1968,-0.4871 0.8578,-0.2043 1.6516,-0.5469 2.3813,-1.0247 0.6023,-0.4023 1.0918,-0.8277 1.4683,-1.2781 0.3774,-0.4492 0.8032,-1.1281 1.2786,-2.0332 l 0.5214,0 0,5.1785 -25.83,0 0,-0.3554 0.6601,0 c 1.507,0 2.6184,-0.1961 3.3379,-0.5918 0.7188,-0.3973 1.0781,-1.0098 1.0781,-1.8399 l 0,-7.7828 c 0,-1.634 -1.4715,-2.4504 -4.416,-2.4504 l -0.6601,0 0.0351,-0.3547 26.4375,0 0,5.5051 -0.6426,0 c -0.3945,-0.7726 -0.7707,-1.3848 -1.1308,-1.8391 z"
         style="fill:none;stroke:#d04a43;stroke-width:0.25;stroke-linecap:butt;stroke-linejoin:miter;stroke-miterlimit:10;stroke-dasharray:none;stroke-opacity:1"
         id="path62"
         inkscape:connector-curvature="0" /><path
         d="m 123.472,27.2879 c -0.335,-0.4727 -0.691,-0.8731 -1.061,-1.2047 -0.37,-0.3324 -0.8,-0.6684 -1.286,-1.0062 -0.811,-0.5418 -1.766,-0.9657 -2.868,-1.2684 -1.101,-0.3027 -2.271,-0.4551 -3.511,-0.4551 l -6.292,0 0,10.2332 c 0,0.8301 0.359,1.4426 1.078,1.8399 0.718,0.3957 1.825,0.5918 3.32,0.5918 l 1.755,0 0,0.3554 -16.5648,0 0,-0.3554 0.8699,0 c 2.9429,0 4.4149,-0.8102 4.4149,-2.4317 l 0,-7.7828 c 0,-1.634 -1.472,-2.4504 -4.4149,-2.4504 l -0.9043,0 0.0344,-0.3547 27.0628,0 0,5.916 -0.642,0 c -0.325,-0.6121 -0.654,-1.1543 -0.991,-1.6269"
         style="fill:#f5f5f5;fill-opacity:1;fill-rule:nonzero;stroke:none"
         id="path64"
         inkscape:connector-curvature="0" /><path
         d="m 123.472,27.2879 c -0.335,-0.4727 -0.691,-0.8731 -1.061,-1.2047 -0.37,-0.3324 -0.8,-0.6684 -1.286,-1.0062 -0.811,-0.5418 -1.766,-0.9657 -2.868,-1.2684 -1.101,-0.3027 -2.271,-0.4551 -3.511,-0.4551 l -6.292,0 0,10.2332 c 0,0.8301 0.359,1.4426 1.078,1.8399 0.718,0.3957 1.825,0.5918 3.32,0.5918 l 1.755,0 0,0.3554 -16.5648,0 0,-0.3554 0.8699,0 c 2.9429,0 4.4149,-0.8102 4.4149,-2.4317 l 0,-7.7828 c 0,-1.634 -1.472,-2.4504 -4.4149,-2.4504 l -0.9043,0 0.0344,-0.3547 27.0628,0 0,5.916 -0.642,0 c -0.325,-0.6121 -0.654,-1.1543 -0.991,-1.6269 z"
         style="fill:none;stroke:#d04a43;stroke-width:0.25;stroke-linecap:butt;stroke-linejoin:miter;stroke-miterlimit:10;stroke-dasharray:none;stroke-opacity:1"
         id="path66"
         inkscape:connector-curvature="0" /><path
         d="m 200.174,28.9648 2.103,0 c 2.944,0 4.416,-0.8125 4.416,-2.4328 l 0,-0.6902 c 0,-0.7254 -0.573,-1.3086 -1.721,-1.7414 -0.603,-0.2234 -1.397,-0.4043 -2.382,-0.541 -0.983,-0.1375 -1.969,-0.2059 -2.955,-0.2059 -0.766,0 -1.492,0.0438 -2.19,0.1278 -0.695,0.0878 -1.353,0.223 -1.972,0.4082 -0.619,0.1847 -1.159,0.4015 -1.616,0.6503 -0.459,0.2493 -0.867,0.5395 -1.225,0.8723 -0.209,0.2043 -0.4,0.4688 -0.575,0.7883 -0.174,0.323 -0.319,0.6519 -0.435,0.9871 -0.114,0.3359 -0.209,0.7195 -0.276,1.1531 -0.072,0.4348 -0.107,0.8711 -0.107,1.3117 0,1.4754 0.218,2.677 0.654,3.6094 0.433,0.9324 1.132,1.6633 2.093,2.1926 0.579,0.318 1.338,0.5738 2.278,0.7652 0.939,0.1907 1.882,0.2871 2.833,0.2871 1.83,0 3.612,-0.2652 5.344,-0.7929 1.733,-0.5313 3.168,-1.252 4.301,-2.1649 0.408,-0.3136 0.779,-0.675 1.115,-1.0859 0.336,-0.4121 0.7,-0.966 1.095,-1.6621 l 0.575,0 -0.175,5.7722 -0.643,0 c -0.498,-0.414 -0.953,-0.7136 -1.365,-0.8992 -0.41,-0.1836 -0.832,-0.2765 -1.26,-0.2765 -0.418,0 -1.143,0.1425 -2.173,0.4297 -1.38,0.3773 -2.645,0.6496 -3.798,0.8175 -1.154,0.17 -2.332,0.2539 -3.537,0.2539 -1.207,0 -2.414,-0.091 -3.624,-0.2765 -1.212,-0.1844 -2.36,-0.4469 -3.442,-0.7852 -1.084,-0.3387 -2.076,-0.7519 -2.981,-1.2449 -0.776,-0.4395 -1.425,-0.9063 -1.947,-1.3965 -0.521,-0.4922 -0.922,-1.0226 -1.201,-1.5937 -0.277,-0.5723 -0.415,-1.1512 -0.415,-1.7375 0,-0.9715 0.358,-1.8778 1.077,-2.7184 0.718,-0.843 1.73,-1.5766 3.033,-2.1984 1.303,-0.6231 2.838,-1.1028 4.608,-1.4407 1.765,-0.3386 3.668,-0.5078 5.707,-0.5078 1.078,0 1.989,0.043 2.73,0.1301 0.742,0.0859 1.744,0.2539 3.007,0.502 0.776,0.1785 1.382,0.2941 1.815,0.3496 0.437,0.0547 0.909,0.082 1.418,0.082 0.58,0 1.065,-0.0457 1.452,-0.1348 0.388,-0.0898 0.843,-0.2687 1.365,-0.5371 l 0.642,0 0,3.1414 c 0,0.8223 0.362,1.4348 1.088,1.8332 0.723,0.3985 1.832,0.5996 3.328,0.5996 l 0.556,0 0,0.3524 -16.618,0 0,-0.3524"
         style="fill:#f5f5f5;fill-opacity:1;fill-rule:nonzero;stroke:none"
         id="path68"
         inkscape:connector-curvature="0" /><path
         d="m 200.174,28.9648 2.103,0 c 2.944,0 4.416,-0.8125 4.416,-2.4328 l 0,-0.6902 c 0,-0.7254 -0.573,-1.3086 -1.721,-1.7414 -0.603,-0.2234 -1.397,-0.4043 -2.382,-0.541 -0.983,-0.1375 -1.969,-0.2059 -2.955,-0.2059 -0.766,0 -1.492,0.0438 -2.19,0.1278 -0.695,0.0878 -1.353,0.223 -1.972,0.4082 -0.619,0.1847 -1.159,0.4015 -1.616,0.6503 -0.459,0.2493 -0.867,0.5395 -1.225,0.8723 -0.209,0.2043 -0.4,0.4688 -0.575,0.7883 -0.174,0.323 -0.319,0.6519 -0.435,0.9871 -0.114,0.3359 -0.209,0.7195 -0.276,1.1531 -0.072,0.4348 -0.107,0.8711 -0.107,1.3117 0,1.4754 0.218,2.677 0.654,3.6094 0.433,0.9324 1.132,1.6633 2.093,2.1926 0.579,0.318 1.338,0.5738 2.278,0.7652 0.939,0.1907 1.882,0.2871 2.833,0.2871 1.83,0 3.612,-0.2652 5.344,-0.7929 1.733,-0.5313 3.168,-1.252 4.301,-2.1649 0.408,-0.3136 0.779,-0.675 1.115,-1.0859 0.336,-0.4121 0.7,-0.966 1.095,-1.6621 l 0.575,0 -0.175,5.7722 -0.643,0 c -0.498,-0.414 -0.953,-0.7136 -1.365,-0.8992 -0.41,-0.1836 -0.832,-0.2765 -1.26,-0.2765 -0.418,0 -1.143,0.1425 -2.173,0.4297 -1.38,0.3773 -2.645,0.6496 -3.798,0.8175 -1.154,0.17 -2.332,0.2539 -3.537,0.2539 -1.207,0 -2.414,-0.091 -3.624,-0.2765 -1.212,-0.1844 -2.36,-0.4469 -3.442,-0.7852 -1.084,-0.3387 -2.076,-0.7519 -2.981,-1.2449 -0.776,-0.4395 -1.425,-0.9063 -1.947,-1.3965 -0.521,-0.4922 -0.922,-1.0226 -1.201,-1.5937 -0.277,-0.5723 -0.415,-1.1512 -0.415,-1.7375 0,-0.9715 0.358,-1.8778 1.077,-2.7184 0.718,-0.843 1.73,-1.5766 3.033,-2.1984 1.303,-0.6231 2.838,-1.1028 4.608,-1.4407 1.765,-0.3386 3.668,-0.5078 5.707,-0.5078 1.078,0 1.989,0.043 2.73,0.1301 0.742,0.0859 1.744,0.2539 3.007,0.502 0.776,0.1785 1.382,0.2941 1.815,0.3496 0.437,0.0547 0.909,0.082 1.418,0.082 0.58,0 1.065,-0.0457 1.452,-0.1348 0.388,-0.0898 0.843,-0.2687 1.365,-0.5371 l 0.642,0 0,3.1414 c 0,0.8223 0.362,1.4348 1.088,1.8332 0.723,0.3985 1.832,0.5996 3.328,0.5996 l 0.556,0 0,0.3524 -16.618,0 0,-0.3524 z"
         style="fill:none;stroke:#d04a43;stroke-width:0.25;stroke-linecap:butt;stroke-linejoin:miter;stroke-miterlimit:10;stroke-dasharray:none;stroke-opacity:1"
         id="path70"
         inkscape:connector-curvature="0" /><path
         d="m 244.072,34.573 c -1.39,0.7657 -3.027,1.3481 -4.91,1.7461 -1.885,0.3997 -3.96,0.5997 -6.231,0.5997 -2.574,0 -4.962,-0.3133 -7.163,-0.9434 -2.202,-0.6289 -3.957,-1.4785 -5.266,-2.5504 -1.311,-1.0727 -1.967,-2.2289 -1.967,-3.466 0,-0.9309 0.382,-1.8254 1.141,-2.6817 0.758,-0.8546 1.815,-1.6035 3.174,-2.2433 1.353,-0.6422 2.92,-1.1383 4.701,-1.4891 1.778,-0.3508 3.676,-0.5265 5.691,-0.5265 2.645,0 5.072,0.3086 7.293,0.9277 2.219,0.6191 3.975,1.459 5.268,2.5187 1.291,1.0586 1.937,2.2176 1.937,3.4747 0,0.8378 -0.32,1.655 -0.955,2.4562 -0.639,0.8016 -1.543,1.5262 -2.713,2.1773 z m -3.502,-8.08 c -0.679,-1.0016 -1.652,-1.7715 -2.92,-2.3114 -1.269,-0.5398 -2.761,-0.8097 -4.476,-0.8097 -1.264,0 -2.41,0.1543 -3.442,0.4601 -1.033,0.3075 -1.919,0.752 -2.66,1.3348 -0.741,0.584 -1.31,1.2812 -1.704,2.0871 -0.395,0.8086 -0.591,1.7043 -0.591,2.6856 0,0.7859 0.125,1.5175 0.373,2.1972 0.25,0.6805 0.62,1.2957 1.116,1.8485 0.492,0.5519 1.084,1.0293 1.78,1.4308 0.638,0.3692 1.423,0.6563 2.354,0.8574 0.934,0.2 1.927,0.2996 2.983,0.2996 0.59,0 1.204,-0.0523 1.842,-0.1628 0.636,-0.1063 1.199,-0.2512 1.685,-0.4297 0.985,-0.3387 1.826,-0.7961 2.522,-1.3731 0.695,-0.5773 1.226,-1.2558 1.599,-2.0351 0.371,-0.7774 0.555,-1.6141 0.555,-2.509 0,-1.3778 -0.338,-2.5672 -1.016,-3.5703"
         style="fill:#f5f5f5;fill-opacity:1;fill-rule:nonzero;stroke:none"
         id="path72"
         inkscape:connector-curvature="0" /><path
         d="m 244.072,34.573 c -1.39,0.7657 -3.027,1.3481 -4.91,1.7461 -1.885,0.3997 -3.96,0.5997 -6.231,0.5997 -2.574,0 -4.962,-0.3133 -7.163,-0.9434 -2.202,-0.6289 -3.957,-1.4785 -5.266,-2.5504 -1.311,-1.0727 -1.967,-2.2289 -1.967,-3.466 0,-0.9309 0.382,-1.8254 1.141,-2.6817 0.758,-0.8546 1.815,-1.6035 3.174,-2.2433 1.353,-0.6422 2.92,-1.1383 4.701,-1.4891 1.778,-0.3508 3.676,-0.5265 5.691,-0.5265 2.645,0 5.072,0.3086 7.293,0.9277 2.219,0.6191 3.975,1.459 5.268,2.5187 1.291,1.0586 1.937,2.2176 1.937,3.4747 0,0.8378 -0.32,1.655 -0.955,2.4562 -0.639,0.8016 -1.543,1.5262 -2.713,2.1773 z m -3.502,-8.08 c -0.679,-1.0016 -1.652,-1.7715 -2.92,-2.3114 -1.269,-0.5398 -2.761,-0.8097 -4.476,-0.8097 -1.264,0 -2.41,0.1543 -3.442,0.4601 -1.033,0.3075 -1.919,0.752 -2.66,1.3348 -0.741,0.584 -1.31,1.2812 -1.704,2.0871 -0.395,0.8086 -0.591,1.7043 -0.591,2.6856 0,0.7859 0.125,1.5175 0.373,2.1972 0.25,0.6805 0.62,1.2957 1.116,1.8485 0.492,0.5519 1.084,1.0293 1.78,1.4308 0.638,0.3692 1.423,0.6563 2.354,0.8574 0.934,0.2 1.927,0.2996 2.983,0.2996 0.59,0 1.204,-0.0523 1.842,-0.1628 0.636,-0.1063 1.199,-0.2512 1.685,-0.4297 0.985,-0.3387 1.826,-0.7961 2.522,-1.3731 0.695,-0.5773 1.226,-1.2558 1.599,-2.0351 0.371,-0.7774 0.555,-1.6141 0.555,-2.509 0,-1.3778 -0.338,-2.5672 -1.016,-3.5703 z"
         style="fill:none;stroke:#d04a43;stroke-width:0.25;stroke-linecap:butt;stroke-linejoin:miter;stroke-miterlimit:10;stroke-dasharray:none;stroke-opacity:1"
         id="path74"
         inkscape:connector-curvature="0" /><path
         d="m 278.445,32.3957 c -0.636,0.8016 -1.541,1.5262 -2.711,2.1773 -1.388,0.7657 -3.025,1.3481 -4.908,1.7461 -1.885,0.3997 -3.963,0.5997 -6.234,0.5997 -2.571,0 -4.959,-0.3133 -7.16,-0.9434 -2.202,-0.6289 -3.957,-1.4785 -5.266,-2.5504 -1.311,-1.0727 -1.965,-2.2289 -1.965,-3.466 0,-0.9309 0.379,-1.8254 1.137,-2.6817 0.76,-0.8546 1.818,-1.6035 3.174,-2.2433 1.355,-0.6422 2.922,-1.1383 4.703,-1.4891 1.777,-0.3508 3.676,-0.5265 5.691,-0.5265 2.643,0 5.071,0.3086 7.291,0.9277 2.221,0.6191 3.975,1.459 5.268,2.5187 1.291,1.0586 1.937,2.2176 1.937,3.4747 0,0.8378 -0.318,1.655 -0.957,2.4562 z m -6.213,-5.9027 c -0.677,-1.0016 -1.652,-1.7715 -2.919,-2.3114 -1.27,-0.5398 -2.762,-0.8097 -4.477,-0.8097 -1.262,0 -2.41,0.1543 -3.441,0.4601 -1.032,0.3075 -1.918,0.752 -2.659,1.3348 -0.742,0.584 -1.31,1.2812 -1.705,2.0871 -0.392,0.8086 -0.59,1.7043 -0.59,2.6856 0,0.7859 0.125,1.5175 0.373,2.1972 0.249,0.6805 0.62,1.2957 1.114,1.8485 0.492,0.5519 1.086,1.0293 1.781,1.4308 0.637,0.3692 1.422,0.6563 2.354,0.8574 0.933,0.2 1.927,0.2996 2.982,0.2996 0.592,0 1.203,-0.0523 1.844,-0.1628 0.636,-0.1063 1.197,-0.2512 1.685,-0.4297 0.985,-0.3387 1.824,-0.7961 2.52,-1.3731 0.695,-0.5773 1.228,-1.2558 1.599,-2.0351 0.371,-0.7774 0.557,-1.6141 0.557,-2.509 0,-1.3778 -0.34,-2.5672 -1.018,-3.5703"
         style="fill:#f5f5f5;fill-opacity:1;fill-rule:nonzero;stroke:none"
         id="path76"
         inkscape:connector-curvature="0" /><path
         d="m 278.445,32.3957 c -0.636,0.8016 -1.541,1.5262 -2.711,2.1773 -1.388,0.7657 -3.025,1.3481 -4.908,1.7461 -1.885,0.3997 -3.963,0.5997 -6.234,0.5997 -2.571,0 -4.959,-0.3133 -7.16,-0.9434 -2.202,-0.6289 -3.957,-1.4785 -5.266,-2.5504 -1.311,-1.0727 -1.965,-2.2289 -1.965,-3.466 0,-0.9309 0.379,-1.8254 1.137,-2.6817 0.76,-0.8546 1.818,-1.6035 3.174,-2.2433 1.355,-0.6422 2.922,-1.1383 4.703,-1.4891 1.777,-0.3508 3.676,-0.5265 5.691,-0.5265 2.643,0 5.071,0.3086 7.291,0.9277 2.221,0.6191 3.975,1.459 5.268,2.5187 1.291,1.0586 1.937,2.2176 1.937,3.4747 0,0.8378 -0.318,1.655 -0.957,2.4562 z m -6.213,-5.9027 c -0.677,-1.0016 -1.652,-1.7715 -2.919,-2.3114 -1.27,-0.5398 -2.762,-0.8097 -4.477,-0.8097 -1.262,0 -2.41,0.1543 -3.441,0.4601 -1.032,0.3075 -1.918,0.752 -2.659,1.3348 -0.742,0.584 -1.31,1.2812 -1.705,2.0871 -0.392,0.8086 -0.59,1.7043 -0.59,2.6856 0,0.7859 0.125,1.5175 0.373,2.1972 0.249,0.6805 0.62,1.2957 1.114,1.8485 0.492,0.5519 1.086,1.0293 1.781,1.4308 0.637,0.3692 1.422,0.6563 2.354,0.8574 0.933,0.2 1.927,0.2996 2.982,0.2996 0.592,0 1.203,-0.0523 1.844,-0.1628 0.636,-0.1063 1.197,-0.2512 1.685,-0.4297 0.985,-0.3387 1.824,-0.7961 2.52,-1.3731 0.695,-0.5773 1.228,-1.2558 1.599,-2.0351 0.371,-0.7774 0.557,-1.6141 0.557,-2.509 0,-1.3778 -0.34,-2.5672 -1.018,-3.5703 z"
         style="fill:none;stroke:#d04a43;stroke-width:0.25;stroke-linecap:butt;stroke-linejoin:miter;stroke-miterlimit:10;stroke-dasharray:none;stroke-opacity:1"
         id="path78"
         inkscape:connector-curvature="0" /><path
         d="m 308.965,32.2656 c -0.656,0.8106 -1.584,1.5383 -2.791,2.1824 -1.332,0.7481 -2.975,1.3008 -4.928,1.6622 -1.953,0.3593 -4.238,0.541 -6.857,0.541 l -16.112,0 0,-0.3543 0.887,0 c 1.506,0 2.617,-0.1985 3.336,-0.5938 0.719,-0.3945 1.078,-1.009 1.078,-1.8379 l 0,-7.782 c 0,-0.8246 -0.363,-1.4359 -1.088,-1.8344 -0.722,-0.3992 -1.834,-0.5976 -3.326,-0.5976 l -0.887,0 0,-0.375 17.258,0 c 2.065,0 3.983,0.1593 5.756,0.4738 1.772,0.3172 3.305,0.7645 4.596,1.3457 1.293,0.5809 2.293,1.2707 2.998,2.0684 0.707,0.7976 1.062,1.6652 1.062,2.6035 0,0.8543 -0.328,1.6883 -0.982,2.498 z m -7.918,-7.3429 c -0.522,-0.3055 -1.131,-0.5536 -1.826,-0.7411 -0.696,-0.1894 -1.506,-0.3242 -2.434,-0.4074 -0.928,-0.084 -2.055,-0.123 -3.389,-0.123 l -4.693,0 0,12.6457 4.381,0 c 1.309,0 2.43,-0.0422 3.363,-0.1258 0.932,-0.0824 1.756,-0.2168 2.469,-0.4066 0.711,-0.1883 1.352,-0.4344 1.92,-0.7422 0.683,-0.3766 1.252,-0.8133 1.703,-1.3106 0.453,-0.498 0.797,-1.0738 1.033,-1.7281 0.239,-0.6535 0.358,-1.3481 0.358,-2.0824 0,-2.2403 -0.961,-3.8992 -2.885,-4.9785"
         style="fill:#f5f5f5;fill-opacity:1;fill-rule:nonzero;stroke:none"
         id="path80"
         inkscape:connector-curvature="0" /><path
         d="m 308.965,32.2656 c -0.656,0.8106 -1.584,1.5383 -2.791,2.1824 -1.332,0.7481 -2.975,1.3008 -4.928,1.6622 -1.953,0.3593 -4.238,0.541 -6.857,0.541 l -16.112,0 0,-0.3543 0.887,0 c 1.506,0 2.617,-0.1985 3.336,-0.5938 0.719,-0.3945 1.078,-1.009 1.078,-1.8379 l 0,-7.782 c 0,-0.8246 -0.363,-1.4359 -1.088,-1.8344 -0.722,-0.3992 -1.834,-0.5976 -3.326,-0.5976 l -0.887,0 0,-0.375 17.258,0 c 2.065,0 3.983,0.1593 5.756,0.4738 1.772,0.3172 3.305,0.7645 4.596,1.3457 1.293,0.5809 2.293,1.2707 2.998,2.0684 0.707,0.7976 1.062,1.6652 1.062,2.6035 0,0.8543 -0.328,1.6883 -0.982,2.498 z m -7.918,-7.3429 c -0.522,-0.3055 -1.131,-0.5536 -1.826,-0.7411 -0.696,-0.1894 -1.506,-0.3242 -2.434,-0.4074 -0.928,-0.084 -2.055,-0.123 -3.389,-0.123 l -4.693,0 0,12.6457 4.381,0 c 1.309,0 2.43,-0.0422 3.363,-0.1258 0.932,-0.0824 1.756,-0.2168 2.469,-0.4066 0.711,-0.1883 1.352,-0.4344 1.92,-0.7422 0.683,-0.3766 1.252,-0.8133 1.703,-1.3106 0.453,-0.498 0.797,-1.0738 1.033,-1.7281 0.239,-0.6535 0.358,-1.3481 0.358,-2.0824 0,-2.2403 -0.961,-3.8992 -2.885,-4.9785 z"
         style="fill:none;stroke:#d04a43;stroke-width:0.25;stroke-linecap:butt;stroke-linejoin:miter;stroke-miterlimit:10;stroke-dasharray:none;stroke-opacity:1"
         id="path82"
         inkscape:connector-curvature="0" /><path
         d="m 161.694,3.5625 c 2.923,0.71367 5.336,1.82305 5.764,3.53594 0,0 0,0 0,0.0039 l 0,0.49219 -19.067,0 0,-7.59374875 2.971,0 0,0.00390625 c 0.211,0 1.345,-0.0125 1.158,0.00507813 C 151.76,0.0652344 151.462,1.0418 151.362,1.50664 l 0,0.78242 c 2.131,0.08594 5.874,0.33203 9.221,1.02149 2.758,-0.63477 5.134,-1.65625 5.794,-3.30078437 l 1.146,0 C 167.092,1.73359 164.646,2.84375 161.694,3.5625 Z m -1.119,0.24805 c -0.386,-0.09102 -0.784,-0.17383 -1.183,-0.25196 -2.951,-0.55976 -6.126,-0.73945 -8.03,-0.79492 l 0,3.48828 c 0.189,0.51172 1.031,0.75196 1.551,0.84649 l 13.398,0 c -0.657,-1.62891 -3,-2.64805 -5.736,-3.28789"
         style="fill:#ed0017;fill-opacity:1;fill-rule:nonzero;stroke:none"
         id="path84"
         inkscape:connector-curvature="0" /><path
         d="m 141.614,5.27617 c -1.075,0.91211 -2.441,1.75 -4.16,2.31836 l -2.968,0 c 1.9,-0.64414 3.352,-1.5418 4.457,-2.5 C 133.941,4.66797 126.962,3.5293 126.202,0.5 l 0,-0.49921875 19.066,0 c 0,0 -0.745,2.54804875 -3.154,4.82460875 -0.157,0.15391 -0.324,0.3043 -0.5,0.45078 z M 139.398,4.68242 C 140.84,3.3 141.597,1.86914 141.972,0.957031 141.57,0.684375 140.967,0.554688 140.621,0.5 l -13.27,0 c 1.149,2.85938 7.518,3.84258 12.047,4.18242"
         style="fill:#ed0017;fill-opacity:1;fill-rule:nonzero;stroke:none"
         id="path86"
         inkscape:connector-curvature="0" /><path
         d="m 102.624,5.27617 c -1.074,0.91211 -2.439,1.75 -4.1599,2.31836 l -2.968,0 c 1.8992,-0.64414 3.3547,-1.5418 4.4562,-2.5 C 94.9512,4.66797 87.9727,3.5293 87.2141,0.5 l 0,-0.49921875 19.0639,0 c 0,0 -0.744,2.54804875 -3.152,4.82460875 -0.157,0.15391 -0.326,0.3043 -0.502,0.45078 z m -2.215,-0.59375 c 1.405,-1.34765 2.157,-2.73711 2.543,-3.65117 C 102.56,0.708203 101.885,0.558594 101.508,0.5 l -13.1475,0 c 1.1493,2.85938 7.5196,3.84258 12.0485,4.18242"
         style="fill:#ed0017;fill-opacity:1;fill-rule:nonzero;stroke:none"
         id="path88"
         inkscape:connector-curvature="0" /><path
         d="m 185.734,5.27617 c -1.075,0.91211 -2.44,1.75 -4.16,2.31836 l -2.969,0 c 1.899,-0.64414 3.354,-1.5418 4.458,-2.5 C 178.061,4.66797 171.081,3.5293 170.323,0.5 l 0,-0.49921875 19.066,0 c 0,0 -0.743,2.54804875 -3.155,4.82460875 -0.155,0.15391 -0.324,0.3043 -0.5,0.45078 z m -2.216,-0.59375 c 1.429,-1.37187 2.185,-2.78906 2.564,-3.70117 C 185.682,0.690234 185.049,0.556641 184.69,0.5 l -13.22,0 c 1.15,2.85938 7.519,3.84258 12.048,4.18242"
         style="fill:#ed0017;fill-opacity:1;fill-rule:nonzero;stroke:none"
         id="path90"
         inkscape:connector-curvature="0" /><path
         d="m 211.111,7.59453 -18.91,0 0,-0.48125 0.008,0 c -0.003,-0.13476 -0.016,-1.1875 0,-1.0207 0.072,0.70625 1.329,0.95234 1.812,1.0207 l 11.075,0 -12.895,-7.11249875 2.969,0 0.016,0.00898438 15.925,0 0,0.48164037 -0.006,0 c 0.002,0.16875 0.016,1.174614 -10e-4,1.011324 -0.07,-0.675777 -1.232,-0.930464 -1.754,-1.011324 l -11.118,0 12.879,7.103124"
         style="fill:#ed0017;fill-opacity:1;fill-rule:nonzero;stroke:none"
         id="path92"
         inkscape:connector-curvature="0" /><path
         d="m 233.732,7.60938 -18.909,0 0,-0.48633 0.007,0 c -0.002,-0.14453 -0.016,-1.18282 0,-1.01367 0.072,0.69335 1.298,0.94453 1.795,1.01367 l 11.091,0 -12.893,-7.1093781 2.968,0 0.016,0.0070312 15.925,0 0,0.4832029 -0.006,0 c 0.001,0.217578 0.014,1.156254 -0.001,0.998824 -0.066,-0.643355 -1.12,-0.903121 -1.677,-0.998824 l -11.194,0 12.878,7.105474"
         style="fill:#ed0017;fill-opacity:1;fill-rule:nonzero;stroke:none"
         id="path94"
         inkscape:connector-curvature="0" /><path
         d="m 237.08,7.60938 0,-7.5957081 2.969,0 0,7.5957081 -2.969,0"
         style="fill:#ed0017;fill-opacity:1;fill-rule:nonzero;stroke:none"
         id="path96"
         inkscape:connector-curvature="0" /><path
         d="m 72.9922,1.4668 0,0.82226 c 4.3008,0.17578 15.1394,0.99102 16.0969,4.80938 0,0 0,0 0,0.0039 l 0,0.49219 -19.0657,0 0,-7.59374875 2.9688,0 0,0.00390625 c 0.2473,0 1.3301,-0.0125 1.1484,0.00507813 C 73.4023,0.0652344 73.1008,0.983594 72.9922,1.4668 Z m 0,1.29687 0,3.36406 c 0.0605,0.58907 0.957,0.85665 1.532,0.97071 l 13.4172,0 C 86.5066,3.53398 76.9734,2.87969 72.9922,2.76367"
         style="fill:#ed0017;fill-opacity:1;fill-rule:nonzero;stroke:none"
         id="path98"
         inkscape:connector-curvature="0" /><path
         d="m 111.982,1.73906 0,0.55 c 4.3,0.17578 15.139,0.99102 16.096,4.80938 0,0 0,0 0,0.0039 l 0,0.49219 -19.066,0 0,-7.59374875 2.97,0 0,0.00898438 c 0.015,0 1.404,-0.01757813 1.2,0 -0.973,0.07109377 -1.188,1.63671437 -1.2,1.72929437 z m 0,1.02461 0,3.35156 c 0.002,-0.02265 0.004,-0.02656 0.006,0 0.063,0.61524 1.035,0.87696 1.603,0.98321 l 13.34,0 C 125.497,3.53398 115.964,2.87969 111.982,2.76367 Z m 0.005,4.33477 C 111.986,7.01953 111.984,6.875 111.982,6.7168 l 0,0.38164 0.005,0"
         style="fill:#ed0017;fill-opacity:1;fill-rule:nonzero;stroke:none"
         id="path100"
         inkscape:connector-curvature="0" /><path
         d="m 175.248,82.2441 -0.018,-0.0066 -0.003,0.0145 0.022,-0.0079 c 0.539,0.2032 1.119,0.3789 1.741,0.5536 12.725,3.4836 43.799,3.2336 44.17,3.2531 -5.905,3.5847 -16.691,12.4531 -22.795,18.1902 -3.324,3.128 -7.23,6.978 -10.786,10.548 -3.569,3.556 -7.418,7.461 -10.546,10.785 -5.738,6.102 -14.606,16.887 -18.19,22.794 -0.021,-0.371 0.232,-31.445 -3.255,-44.168 -0.174,-0.624 -0.349,-1.204 -0.552,-1.743 l 0.007,-0.021 -0.015,0 0.008,0.019 c -0.204,0.541 -0.379,1.121 -0.554,1.746 -3.485,12.723 -3.232,43.796 -3.254,44.166 -3.583,-5.906 -12.45,-16.69 -18.19,-22.793 -3.127,-3.324 -6.977,-7.231 -10.546,-10.785 -3.554,-3.57 -7.462,-7.42 -10.786,-10.548 -6.103,-5.7383 -16.8876,-14.6043 -22.7935,-18.1883 0.3691,-0.0226 31.4435,0.2305 44.1675,-3.2558 0.623,-0.1739 1.204,-0.3489 1.744,-0.5508 l 0.021,0.0059 0.003,-0.0157 -0.004,0 -0.02,0.0067 c -0.54,-0.2032 -1.121,-0.3766 -1.744,-0.5535 -12.724,-3.4844 -43.7984,-3.2325 -44.1679,-3.254 5.9063,-3.5832 16.6899,-12.4492 22.7939,-18.1886 3.324,-3.1278 7.231,-6.9785 10.786,-10.5465 3.569,-3.5539 7.419,-7.4621 10.546,-10.7856 5.74,-6.1054 14.607,-16.8886 18.19,-22.7957 0.02,0.3711 -0.231,31.4434 3.254,44.1688 0.175,0.623 0.351,1.2043 0.553,1.7441 l -0.007,0.0207 0.014,0.0059 0,-0.0047 -0.006,-0.0226 c 0.203,-0.5391 0.378,-1.1192 0.552,-1.7434 3.487,-12.7234 3.234,-43.7977 3.255,-44.1707 3.585,5.909 12.451,16.6941 18.19,22.7976 3.128,3.3235 6.977,7.2297 10.547,10.7856 3.556,3.568 7.46,7.4187 10.785,10.5465 6.104,5.7394 16.89,14.6047 22.795,18.1906 -0.371,0.0207 -31.445,-0.2316 -44.17,3.252 -0.622,0.1757 -1.202,0.3503 -1.742,0.5546 z m 28.709,-4.9414 0.007,-0.0078 c 0,0 0.113,-6.3965 -7.447,-15.6621 -2.191,-2.6797 -6.068,-6.8105 -10.063,-10.8047 -3.997,-3.9988 -8.127,-7.875 -10.808,-10.0652 -9.264,-7.5598 -15.662,-7.4465 -15.662,-7.4465 l -0.007,0.0066 c -0.006,0.0063 -0.006,0.0063 -0.022,0.004 0,0.1261 -0.447,18.1437 -3.168,27.3468 -0.183,0.6024 -0.372,1.1825 -0.582,1.7149 -0.279,0.7703 -0.611,1.6992 -1.169,1.7011 l 0,-0.0011 c -0.561,-8e-4 -0.89,-0.9297 -1.17,-1.7 -0.211,-0.5324 -0.397,-1.1133 -0.582,-1.716 -2.72,-9.202 -3.169,-27.2157 -3.169,-27.3434 -0.014,0 -0.014,0 -0.021,-0.0063 l -0.006,-0.0066 c 0,0 -6.398,-0.1113 -15.664,7.4441 -2.681,2.1926 -6.809,6.0688 -10.806,10.0676 -3.998,3.9942 -7.873,8.1239 -10.064,10.8035 -7.558,9.2668 -7.445,15.6645 -7.445,15.6645 l 0.004,0.0055 c 0.007,0.007 0.007,0.007 0.008,0.0214 0.127,0 18.14,0.4485 27.344,3.17 0.6,0.1828 1.182,0.3703 1.716,0.58 0.77,0.2805 1.699,0.6106 1.699,1.1711 l -0.002,0 0.003,0 c -0.001,0.5606 -0.93,0.8907 -1.7,1.1707 -0.533,0.209 -1.116,0.3965 -1.716,0.5793 -9.204,2.7227 -27.217,3.17 -27.343,3.17 -0.001,0.0148 -0.001,0.0148 -0.008,0.0214 l -0.006,0.0079 c 0,0 -0.112,6.3964 7.446,15.6616 2.191,2.681 6.067,6.811 10.064,10.807 3.997,3.996 8.126,7.873 10.807,10.063 9.264,7.558 15.663,7.447 15.663,7.447 l 0.006,-0.007 c 0.006,-0.007 0.006,-0.007 0.021,-0.007 0,-0.127 0.449,-18.138 3.17,-27.344 0.184,-0.601 0.371,-1.182 0.582,-1.714 0.279,-0.77 0.608,-1.701 1.169,-1.7 l 0,-0.001 c 0.559,0.001 0.889,0.931 1.169,1.701 0.21,0.532 0.399,1.113 0.582,1.714 2.721,9.204 3.168,27.219 3.168,27.344 0.015,0.001 0.015,0.001 0.022,0.007 l 0.007,0.007 c 0,0 6.397,0.111 15.663,-7.445 2.681,-2.192 6.81,-6.069 10.807,-10.065 3.994,-3.996 7.872,-8.126 10.063,-10.807 7.56,-9.2663 7.446,-15.6616 7.446,-15.6616 l -0.006,-0.009 c -0.007,-0.0067 -0.007,-0.0067 -0.007,-0.0203 -0.126,7e-4 -18.14,-0.4485 -27.345,-3.17 -0.601,-0.1828 -1.182,-0.3703 -1.713,-0.58 -0.771,-0.2805 -1.701,-0.6094 -1.703,-1.1692 l 0.007,-0.0019 -0.006,0 c 0.001,-0.5594 0.931,-0.8887 1.701,-1.1688 0.532,-0.209 1.113,-0.3984 1.714,-0.5801 9.205,-2.7226 27.22,-3.1699 27.345,-3.1699 0,-0.0137 0,-0.0137 0.007,-0.0215"
         style="fill:#ed0017;fill-opacity:1;fill-rule:nonzero;stroke:none"
         id="path102"
         inkscape:connector-curvature="0" /><path
         d="m 168.726,82.2441 c 0.07,0.6719 1.051,3.4852 5.221,4.8848 2.736,0.9043 7.483,1.7852 13.843,2.4785 2.905,0.3281 6.123,0.6094 9.651,0.8321 l -17.105,17.1055 -17.104,17.104 c -0.224,-3.528 -0.505,-6.746 -0.833,-9.651 -0.694,-6.361 -1.575,-11.107 -2.479,-13.844 -1.399,-4.1696 -4.211,-5.1501 -4.884,-5.2196 l 0,0.0011 c -0.673,0.0684 -3.485,1.0489 -4.887,5.2185 -0.901,2.737 -1.784,7.483 -2.476,13.846 -0.329,2.904 -0.609,6.121 -0.833,9.65 L 129.735,107.545 112.631,90.4414 c 3.525,-0.2266 6.745,-0.5059 9.649,-0.834 6.364,-0.6914 11.109,-1.5742 13.844,-2.4785 4.172,-1.3996 5.153,-4.2121 5.222,-4.8848 -0.069,-0.673 -1.051,-3.4863 -5.222,-4.8855 -2.735,-0.9027 -7.48,-1.7863 -13.844,-2.4789 -2.905,-0.3281 -6.123,-0.6074 -9.65,-0.8328 l 17.106,-17.1035 0.839,0.8398 -0.006,0.0047 c -1.248,1.2355 -7.105,7.1633 -8.141,15.6152 15.627,1.0293 22.088,4.5227 23.081,8.3012 0.014,0.0699 0.028,0.2945 0.027,0.532 l -0.047,0 0.048,0.0157 c 0,0.2363 -0.014,0.4609 -0.028,0.5332 -0.993,3.7773 -7.454,7.2703 -23.081,8.2988 1.035,8.4519 6.894,14.382 8.141,15.615 l 0.005,0.006 10e-4,0 0,0 0.007,0.007 c 1.233,1.246 7.161,7.104 15.615,8.14 1.028,-15.6274 4.52,-22.0903 8.299,-23.0825 0.072,-0.0117 0.295,-0.0265 0.533,-0.0265 l 0.014,0.0265 0,-0.0273 c 0.237,0 0.462,0.0137 0.532,0.0273 3.778,0.995 7.272,7.4532 8.3,23.0805 8.455,-1.034 14.383,-6.893 15.613,-8.139 l 0.008,-0.006 0.008,-0.008 c 1.244,-1.231 7.105,-7.1599 8.139,-15.613 -15.627,-1.0293 -22.087,-4.5215 -23.082,-8.3008 -0.014,-0.0684 -0.028,-0.293 -0.028,-0.5312 l 0.046,-0.0157 -0.045,0 c 0,-0.2375 0.014,-0.4629 0.027,-0.5312 0.995,-3.7793 7.455,-7.2727 23.083,-8.3008 -1.037,-8.4531 -6.894,-14.3809 -8.14,-15.6125 l -0.008,-0.0086 -0.007,-0.007 c -1.231,-1.2469 -7.159,-7.1051 -15.615,-8.1375 -1.027,15.625 -4.52,22.0859 -8.3,23.0801 -0.069,0.0125 -0.294,0.0273 -0.531,0.0273 l -0.013,-0.0234 0,0.0234 c -0.239,0 -0.463,-0.0148 -0.534,-0.0273 -3.78,-0.9922 -7.272,-7.4551 -8.299,-23.0821 -8.453,1.036 -14.382,6.8926 -15.615,8.1395 l -0.007,0.007 -0.839,-0.8398 17.104,-17.1047 c 0.224,3.5277 0.505,6.7453 0.832,9.6496 0.693,6.3633 1.576,11.1082 2.477,13.8457 1.401,4.1699 4.214,5.1496 4.887,5.2187 l 0,0.002 c 0.671,-0.0703 3.485,-1.0508 4.884,-5.2207 0.904,-2.7375 1.785,-7.4824 2.479,-13.8438 0.328,-2.9043 0.609,-6.1238 0.833,-9.6515 l 17.104,17.1047 17.105,17.1043 c -3.528,0.2238 -6.747,0.505 -9.651,0.8332 -6.361,0.6933 -11.108,1.575 -13.843,2.4785 -4.172,1.3984 -5.152,4.2129 -5.221,4.8847"
         style="fill:#ed0017;fill-opacity:1;fill-rule:nonzero;stroke:none"
         id="path104"
         inkscape:connector-curvature="0" /></g></g></svg>